<svg width="109" height="28" viewBox="0 0 109 28" fill="none" xmlns="http://www.w3.org/2000/svg">
<g clip-path="url(#clip0_19_1395)">
<path d="M7.49707 14.0025L9.16311 15.6685L12.4952 12.3364" stroke="#009B3A" stroke-width="1.66604" stroke-linecap="round" stroke-linejoin="round"/>
<path d="M4.16504 9.83743C4.16504 8.92111 4.91476 8.17139 5.83108 8.17139H14.1613C14.6032 8.17139 15.0269 8.34692 15.3394 8.65936C15.6518 8.9718 15.8273 9.39557 15.8273 9.83743V19.8337H4.16504V9.83743Z" stroke="#009B3A" stroke-width="1.66604" stroke-linecap="round" stroke-linejoin="round"/>
<path d="M18.3264 19.834H1.66602" stroke="#009B3A" stroke-width="1.66604" stroke-linecap="round" stroke-linejoin="round"/>
</g>
<path d="M31.3798 21.1655H28.4139L32.933 8.07462H36.4998L41.0126 21.1655H38.0467L34.7676 11.0661H34.6653L31.3798 21.1655ZM31.1944 16.0199H38.2001V18.1804H31.1944V16.0199ZM42.0976 24.8473V11.3473H44.7823V12.9965H44.9037C45.0231 12.7323 45.1956 12.4638 45.4215 12.1911C45.6516 11.9141 45.9499 11.684 46.3164 11.5008C46.6871 11.3133 47.1474 11.2195 47.6971 11.2195C48.413 11.2195 49.0735 11.407 49.6786 11.782C50.2837 12.1527 50.7674 12.7131 51.1296 13.4631C51.4918 14.2089 51.6729 15.1442 51.6729 16.2692C51.6729 17.3644 51.4961 18.2891 51.1424 19.0434C50.7929 19.7934 50.3157 20.3623 49.7106 20.75C49.1097 21.1336 48.4364 21.3253 47.6907 21.3253C47.1623 21.3253 46.7127 21.238 46.342 21.0633C45.9755 20.8885 45.675 20.6691 45.4407 20.4049C45.2063 20.1364 45.0273 19.8658 44.9037 19.5931H44.8206V24.8473H42.0976ZM44.7631 16.2564C44.7631 16.8402 44.8441 17.3495 45.006 17.7841C45.1679 18.2188 45.4023 18.5576 45.7091 18.8005C46.016 19.0391 46.3888 19.1584 46.8277 19.1584C47.2709 19.1584 47.6459 19.037 47.9527 18.7941C48.2596 18.5469 48.4918 18.206 48.6495 17.7714C48.8114 17.3324 48.8924 16.8275 48.8924 16.2564C48.8924 15.6897 48.8135 15.1911 48.6559 14.7607C48.4982 14.3303 48.266 13.9937 47.9591 13.7508C47.6523 13.5079 47.2752 13.3864 46.8277 13.3864C46.3846 13.3864 46.0096 13.5036 45.7027 13.738C45.4002 13.9723 45.1679 14.3047 45.006 14.7351C44.8441 15.1655 44.7631 15.6726 44.7631 16.2564ZM59.345 16.9851V11.3473H62.068V21.1655H59.4536V19.3821H59.3514C59.1298 19.9574 58.7612 20.4198 58.2455 20.7692C57.7342 21.1187 57.1099 21.2934 56.3727 21.2934C55.7164 21.2934 55.139 21.1442 54.6404 20.8459C54.1418 20.5476 53.7519 20.1236 53.4707 19.5739C53.1937 19.0242 53.0531 18.3658 53.0488 17.5988V11.3473H55.7718V17.113C55.7761 17.6925 55.9316 18.1506 56.2384 18.4873C56.5453 18.8239 56.9565 18.9922 57.4721 18.9922C57.8002 18.9922 58.107 18.9177 58.3926 18.7685C58.6781 18.6151 58.9082 18.3892 59.0829 18.091C59.2619 17.7927 59.3492 17.424 59.345 16.9851ZM63.8066 21.1655V11.3473H66.4465V13.0604H66.5488C66.7278 12.451 67.0282 11.9908 67.4501 11.6797C67.872 11.3644 68.3578 11.2067 68.9075 11.2067C69.0438 11.2067 69.1909 11.2152 69.3485 11.2323C69.5062 11.2493 69.6447 11.2728 69.764 11.3026V13.7188C69.6362 13.6804 69.4593 13.6464 69.2335 13.6165C69.0076 13.5867 68.8009 13.5718 68.6134 13.5718C68.2129 13.5718 67.8549 13.6591 67.5396 13.8339C67.2285 14.0043 66.9813 14.2429 66.7981 14.5498C66.6191 14.8566 66.5296 15.2103 66.5296 15.6108V21.1655H63.8066ZM72.3192 21.1655H69.3533L73.8725 8.07462H77.4393L81.952 21.1655H78.9861L75.707 11.0661H75.6047L72.3192 21.1655ZM72.1339 16.0199H79.1395V18.1804H72.1339V16.0199ZM89.068 24.8473V19.5931H88.9849C88.857 19.8658 88.6759 20.1364 88.4416 20.4049C88.2114 20.6691 87.911 20.8885 87.5403 21.0633C87.1738 21.238 86.7264 21.3253 86.198 21.3253C85.4522 21.3253 84.7768 21.1336 84.1717 20.75C83.5708 20.3623 83.0936 19.7934 82.7399 19.0434C82.3904 18.2891 82.2157 17.3644 82.2157 16.2692C82.2157 15.1442 82.3968 14.2089 82.759 13.4631C83.1212 12.7131 83.6028 12.1527 84.2036 11.782C84.8087 11.407 85.4714 11.2195 86.1916 11.2195C86.7413 11.2195 87.1994 11.3133 87.5659 11.5008C87.9366 11.684 88.2349 11.9141 88.4607 12.1911C88.6909 12.4638 88.8656 12.7323 88.9849 12.9965H89.0999V11.3473H91.7846V24.8473H89.068ZM87.0609 19.1584C87.4998 19.1584 87.8705 19.0391 88.1731 18.8005C88.4799 18.5576 88.7143 18.2188 88.8762 17.7841C89.0424 17.3495 89.1255 16.8402 89.1255 16.2564C89.1255 15.6726 89.0445 15.1655 88.8826 14.7351C88.7207 14.3047 88.4863 13.9723 88.1795 13.738C87.8727 13.5036 87.4998 13.3864 87.0609 13.3864C86.6134 13.3864 86.2363 13.5079 85.9295 13.7508C85.6227 13.9937 85.3904 14.3303 85.2328 14.7607C85.0751 15.1911 84.9962 15.6897 84.9962 16.2564C84.9962 16.8275 85.0751 17.3324 85.2328 17.7714C85.3947 18.206 85.6269 18.5469 85.9295 18.7941C86.2363 19.037 86.6134 19.1584 87.0609 19.1584ZM99.8274 16.9851V11.3473H102.55V21.1655H99.9361V19.3821H99.8338C99.6122 19.9574 99.2436 20.4198 98.728 20.7692C98.2166 21.1187 97.5923 21.2934 96.8551 21.2934C96.1988 21.2934 95.6214 21.1442 95.1228 20.8459C94.6243 20.5476 94.2344 20.1236 93.9531 19.5739C93.6761 19.0242 93.5355 18.3658 93.5312 17.5988V11.3473H96.2542V17.113C96.2585 17.6925 96.414 18.1506 96.7209 18.4873C97.0277 18.8239 97.4389 18.9922 97.9545 18.9922C98.2826 18.9922 98.5895 18.9177 98.875 18.7685C99.1605 18.6151 99.3906 18.3892 99.5653 18.091C99.7443 17.7927 99.8317 17.424 99.8274 16.9851ZM104.289 21.1655V11.3473H107.012V21.1655H104.289ZM105.657 10.0817C105.252 10.0817 104.905 9.94749 104.615 9.67902C104.33 9.40629 104.187 9.0803 104.187 8.70104C104.187 8.32604 104.33 8.00431 104.615 7.73584C104.905 7.46311 105.252 7.32675 105.657 7.32675C106.062 7.32675 106.407 7.46311 106.692 7.73584C106.982 8.00431 107.127 8.32604 107.127 8.70104C107.127 9.0803 106.982 9.40629 106.692 9.67902C106.407 9.94749 106.062 10.0817 105.657 10.0817Z" fill="url(#paint0_linear_19_1395)"/>
<defs>
<linearGradient id="paint0_linear_19_1395" x1="27.9856" y1="14.1655" x2="108.986" y2="14.1655" gradientUnits="userSpaceOnUse">
<stop stop-color="#009B3A"/>
<stop offset="0.0714286" stop-color="#009344"/>
<stop offset="0.142857" stop-color="#008C4C"/>
<stop offset="0.214286" stop-color="#008453"/>
<stop offset="0.285714" stop-color="#007D59"/>
<stop offset="0.357143" stop-color="#00755E"/>
<stop offset="0.428571" stop-color="#006D62"/>
<stop offset="0.5" stop-color="#006566"/>
<stop offset="0.571429" stop-color="#005E69"/>
<stop offset="0.642857" stop-color="#00556C"/>
<stop offset="0.714286" stop-color="#004D6F"/>
<stop offset="0.785714" stop-color="#004571"/>
<stop offset="0.857143" stop-color="#003C73"/>
<stop offset="0.928571" stop-color="#003274"/>
<stop offset="1" stop-color="#002776"/>
</linearGradient>
<clipPath id="clip0_19_1395">
<rect width="19.9925" height="19.9925" fill="white" transform="translate(0 4.00635)"/>
</clipPath>
</defs>
</svg>
