<svg width="48" height="48" viewBox="0 0 48 48" fill="none" xmlns="http://www.w3.org/2000/svg">
    <path
        d="M0 14C0 6.26803 6.26802 0 14 0H33.9978C41.7298 0 47.9978 6.26802 47.9978 14V33.9978C47.9978 41.7298 41.7298 47.9978 33.9978 47.9978H14C6.26803 47.9978 0 41.7298 0 33.9978V14Z"
        fill="#009B3A" fill-opacity="0.1" />
    <path
        d="M32.9995 22.4995V30.9995C32.9995 31.5299 32.7888 32.0387 32.4137 32.4137C32.0387 32.7888 31.5299 32.9995 30.9995 32.9995H16.9995C16.4691 32.9995 15.9604 32.7888 15.5853 32.4137C15.2102 32.0387 14.9995 31.5299 14.9995 30.9995V16.9995C14.9995 16.4691 15.2102 15.9604 15.5853 15.5853C15.9604 15.2102 16.4691 14.9995 16.9995 14.9995H29.4995"
        stroke="#009B3A" stroke-width="1.99991" stroke-linecap="round" stroke-linejoin="round" />
    <path d="M20.999 22.9995L23.999 25.9995L33.999 15.9995" stroke="#009B3A" stroke-width="1.99991"
        stroke-linecap="round" stroke-linejoin="round" />
</svg>